<svg version="1.1" id="Layer_1" xmlns="http://www.w3.org/2000/svg" xmlns:xlink="http://www.w3.org/1999/xlink" x="0px" y="0px"
	 width="100%" viewBox="0 0 1024 1024" enable-background="new 0 0 1024 1024" xml:space="preserve">
<path fill="#000000" opacity="1.000000" stroke="none" 
	d="
M464.819946,720.264526 
	C471.608459,733.976929 477.535278,747.705933 485.349060,761.867554 
	C487.776550,755.259583 489.886566,749.737976 491.840637,744.161743 
	C509.076721,694.976807 526.271423,645.777222 543.506287,596.591797 
	C556.445557,559.665344 569.456787,522.764038 582.348450,485.821014 
	C583.933655,481.278290 585.164062,476.589020 586.230042,471.893005 
	C587.979004,464.188507 584.871155,458.607635 577.516846,455.522858 
	C570.905762,452.749847 563.855408,452.759430 556.899292,452.271881 
	C554.174438,452.080902 551.958984,451.929810 551.845520,448.349609 
	C551.721497,444.436401 554.207336,444.055115 557.070679,444.053314 
	C583.401550,444.036835 609.732483,444.035461 636.063354,444.047638 
	C638.905640,444.048950 641.348267,444.352783 641.309326,448.298553 
	C641.268799,452.400635 638.610657,452.081757 635.877197,452.267975 
	C631.063293,452.595886 626.232788,452.912079 621.462341,453.601105 
	C605.989014,455.836151 597.944763,466.179749 593.123901,479.948944 
	C575.902344,529.136536 558.682007,578.324463 541.442383,627.505676 
	C517.152405,696.800232 492.805969,766.075012 468.626984,835.408264 
	C466.832703,840.553467 462.815338,842.787598 458.940155,845.477905 
	C456.315063,844.584839 456.027344,842.174866 455.139526,840.336853 
	C420.218262,768.042664 385.362762,695.716736 350.456543,623.415283 
	C326.702393,574.213196 302.787415,525.088379 279.152710,475.829041 
	C271.328430,459.521667 258.437195,452.211639 240.776505,452.256714 
	C238.970139,452.261322 237.035629,452.264343 235.392654,451.648712 
	C233.816193,451.058014 233.979218,449.177704 234.034103,447.674469 
	C234.093262,446.053955 234.648453,444.664459 236.431381,444.336823 
	C237.730728,444.098053 239.075073,444.014709 240.399414,444.014313 
	C286.562012,444.000519 332.724609,443.985413 378.887085,444.062286 
	C381.267090,444.066223 384.594879,442.914886 385.229919,446.990540 
	C385.742767,450.282043 384.501556,451.983093 380.944336,452.034454 
	C374.287872,452.130554 367.631012,452.019958 360.992279,452.981232 
	C343.801758,455.470337 339.987518,462.134888 347.555115,477.934937 
	C363.817139,511.887573 380.323242,545.723267 396.726379,579.608337 
	C419.368866,626.382263 442.008514,673.157654 464.819946,720.264526 
z"/>
<path fill="#000000" opacity="1.000000" stroke="none" 
	d="
M629.573730,779.507019 
	C637.119019,753.428406 631.076904,730.887085 613.968933,710.778931 
	C599.252319,693.481506 581.554382,679.671753 562.997131,666.896545 
	C558.592590,663.864380 557.265320,661.217712 559.292542,655.881531 
	C564.965393,640.949829 569.953064,625.758179 575.240723,610.679504 
	C575.782471,609.134644 576.133179,607.433716 578.157898,606.118225 
	C584.197815,609.009277 589.736938,613.250122 595.499878,617.070190 
	C617.589417,631.712708 639.481750,646.590637 657.758179,666.119019 
	C677.199768,686.892456 687.719055,711.328247 686.973267,739.805847 
	C686.302734,765.406982 678.789734,788.650452 659.138611,806.584778 
	C645.011353,819.477722 627.889526,826.156616 609.505859,829.671509 
	C574.986816,836.271301 540.958862,835.360413 508.075073,821.364990 
	C506.171356,820.554749 503.110840,820.326233 503.190155,817.788818 
	C503.303192,814.171509 504.662598,810.613647 506.785950,807.597717 
	C507.756287,806.219482 509.285248,807.374329 510.416931,807.927917 
	C528.687195,816.864685 548.107239,819.740234 568.202454,818.671387 
	C581.458191,817.966248 594.256165,815.250916 605.972107,808.605530 
	C617.511108,802.060364 625.158691,792.344055 629.573730,779.507019 
z"/>
<path fill="#000000" opacity="1.000000" stroke="none" 
	d="
M463.530396,467.525543 
	C480.852692,451.214996 501.539917,442.985199 524.794495,438.636383 
	C525.630127,443.985626 525.403748,448.761505 525.148621,453.517792 
	C525.044312,455.462006 523.248901,456.150696 521.791565,456.897003 
	C501.219208,467.432892 495.894318,490.766449 497.704529,508.850555 
	C499.730011,529.085449 508.400269,546.093323 522.145874,560.696899 
	C525.371033,564.123291 526.133728,567.222412 524.425781,571.828552 
	C518.348816,588.216980 512.761841,604.786865 506.950592,621.274414 
	C506.524261,622.484009 506.368042,623.922180 504.740356,624.797791 
	C504.346375,624.684265 503.618988,624.667480 503.148834,624.311279 
	C484.615448,610.268311 467.196045,595.074341 454.012543,575.648743 
	C430.934509,541.643738 433.220825,496.544983 463.530396,467.525543 
z"/>
<path fill="#000000" opacity="1.000000" stroke="none" 
	d="
M666.070190,482.321777 
	C666.108398,508.943939 666.137207,535.097656 666.075745,561.251160 
	C666.070679,563.393982 666.964600,566.130920 663.863953,567.197205 
	C660.171753,568.466919 657.839722,566.814392 657.693054,562.736755 
	C657.273071,551.060608 655.596008,539.578552 652.672424,528.264587 
	C648.352905,511.548340 640.830139,496.498993 629.569031,483.360809 
	C628.833862,482.503113 627.798462,481.802734 627.796570,480.163391 
	C629.570129,479.018158 631.738281,479.010864 633.815979,478.980347 
	C642.976196,478.845917 652.138000,478.815552 661.299194,478.741882 
	C663.578430,478.723572 665.751099,478.846405 666.070190,482.321777 
z"/>
</svg>